<svg xmlns="http://www.w3.org/2000/svg" viewBox="0 0 240 240" fill="none" stroke="currentColor" stroke-linecap="round">
<g stroke-width="1.6" opacity="0.9"><path d="M 52.45,81.00 L 51.02,83.58 L 49.70,86.22 L 48.47,88.90 L 47.34,91.62 L 46.32,94.39 L 45.41,97.20 L 44.60,100.03 L 43.90,102.90 L 43.31,105.79 L 42.82,108.70 L 42.45,111.62 L 42.19,114.56 L 42.04,117.50 L 42.00,120.45 L 42.07,123.40 L 42.26,126.35 L 42.55,129.28 L 42.96,132.20 L 43.48,135.11 L 44.10,137.99 L 44.84,140.84 L 45.68,143.67 L 46.63,146.46 L 47.68,149.22 L 48.84,151.93 L 50.09,154.60 L 51.45,157.22 L 52.91,159.78 L 54.46,162.29 L 56.11,164.74 L 57.84,167.12 L 59.67,169.44 L 61.58,171.68 L 63.58,173.86 L 65.65,175.95 L 67.81,177.97 L 70.04,179.90 L 72.34,181.74 L 74.71,183.50 L 77.14,185.17 L 79.63,186.74 L 82.18,188.22 L 84.79,189.60 L 87.45,190.88 L 90.15,192.06 L 92.90,193.14 L 95.68,194.11 L 98.50,194.98 L 101.35,195.74 L 104.23,196.39 L 107.13,196.93 L 110.04,197.36 L 112.98,197.68 L 115.92,197.89 L 118.87,197.99 L 121.81,197.98 L 124.76,197.85 L 127.70,197.62 L 130.63,197.27 L 133.54,196.82 L 136.44,196.25 L 139.31,195.57 L 142.15,194.79 L 144.96,193.90 L 147.74,192.90 L 150.48,191.80 L 153.17,190.60 L 155.81,189.29 L 158.41,187.89 L 160.95,186.39 L 163.43,184.79 L 165.85,183.10"/><path d="M 187.55,159.00 L 188.98,156.42 L 190.30,153.78 L 191.53,151.10 L 192.66,148.38 L 193.68,145.61 L 194.59,142.80 L 195.40,139.97 L 196.10,137.10 L 196.69,134.21 L 197.18,131.30 L 197.55,128.38 L 197.81,125.44 L 197.96,122.50 L 198.00,119.55 L 197.93,116.60 L 197.74,113.65 L 197.45,110.72 L 197.04,107.80 L 196.52,104.89 L 195.90,102.01 L 195.16,99.16 L 194.32,96.33 L 193.37,93.54 L 192.32,90.78 L 191.16,88.07 L 189.91,85.40 L 188.55,82.78 L 187.09,80.22 L 185.54,77.71 L 183.89,75.26 L 182.16,72.88 L 180.33,70.56 L 178.42,68.32 L 176.42,66.14 L 174.35,64.05 L 172.19,62.03 L 169.96,60.10 L 167.66,58.26 L 165.29,56.50 L 162.86,54.83 L 160.37,53.26 L 157.82,51.78 L 155.21,50.40 L 152.55,49.12 L 149.85,47.94 L 147.10,46.86 L 144.32,45.89 L 141.50,45.02 L 138.65,44.26 L 135.77,43.61 L 132.87,43.07 L 129.96,42.64 L 127.02,42.32 L 124.08,42.11 L 121.13,42.01 L 118.19,42.02 L 115.24,42.15 L 112.30,42.38 L 109.37,42.73 L 106.46,43.18 L 103.56,43.75 L 100.69,44.43 L 97.85,45.21 L 95.04,46.10 L 92.26,47.10 L 89.52,48.20 L 86.83,49.40 L 84.19,50.71 L 81.59,52.11 L 79.05,53.61 L 76.57,55.21 L 74.15,56.90"/></g>
<path stroke-width="5.6" d="M 112.00,116.00 Q 71.06,86.26 45.82,52.09"/>
<path stroke-width="4.9" d="M 112.00,116.00 Q 83.50,82.04 69.29,47.65"/>
<path stroke-width="4.2" d="M 112.00,116.00 Q 95.21,81.57 90.48,49.75"/>
<path stroke-width="3.6" d="M 112.00,116.00 Q 105.23,84.13 107.87,56.90"/>
<path stroke-width="3.1" d="M 112.00,116.00 Q 112.95,88.78 120.60,67.23"/>
<path stroke-width="2.7" d="M 112.00,116.00 Q 118.18,94.45 128.58,78.77"/>
<path stroke-width="2.4" d="M 112.00,116.00 Q 121.35,99.81 132.93,89.21"/>
<path stroke-width="5.6" d="M 128.00,124.00 Q 168.94,153.74 194.18,187.91"/>
<path stroke-width="4.9" d="M 128.00,124.00 Q 156.50,157.96 170.71,192.35"/>
<path stroke-width="4.2" d="M 128.00,124.00 Q 144.79,158.43 149.52,190.25"/>
<path stroke-width="3.6" d="M 128.00,124.00 Q 134.77,155.87 132.13,183.10"/>
<path stroke-width="3.1" d="M 128.00,124.00 Q 127.05,151.22 119.40,172.77"/>
<path stroke-width="2.7" d="M 128.00,124.00 Q 121.82,145.55 111.42,161.23"/>
<path stroke-width="2.4" d="M 128.00,124.00 Q 118.65,140.19 107.07,150.79"/>
</svg>