<svg xmlns="http://www.w3.org/2000/svg" viewBox="0 0 240 240" fill="none" stroke="currentColor" stroke-width="3.2" stroke-linecap="round">
<g stroke-width="2.2" opacity="0.85"><path d="M 50.46,94.69 L 49.49,97.54 L 48.63,100.43 L 47.90,103.35 L 47.28,106.30 L 46.78,109.28 L 46.41,112.26 L 46.15,115.27 L 46.02,118.28 L 46.01,121.29 L 46.13,124.30 L 46.36,127.31 L 46.72,130.30 L 47.20,133.27 L 47.80,136.23 L 48.52,139.15 L 49.36,142.05 L 50.32,144.90 L 51.39,147.72 L 52.57,150.49 L 53.87,153.21 L 55.28,155.88 L 56.79,158.48 L 58.41,161.02 L 60.13,163.50 L 61.95,165.90 L 63.87,168.22 L 65.88,170.47 L 67.98,172.63 L 70.17,174.70 L 72.43,176.69 L 74.78,178.58 L 77.20,180.37 L 79.70,182.06 L 82.26,183.65 L 84.88,185.13 L 87.56,186.51 L 90.30,187.78 L 93.08,188.93 L 95.91,189.97 L 98.78,190.89 L 101.68,191.70 L 104.61,192.38 L 107.57,192.95 L 110.55,193.39 L 113.55,193.72 L 116.56,193.92 L 119.57,194.00 L 122.58,193.95 L 125.59,193.79 L 128.59,193.50 L 131.58,193.09 L 134.54,192.56 L 137.48,191.90 L 140.40,191.13 L 143.28,190.24 L 146.12,189.24 L 148.91,188.12 L 151.66,186.88 L 154.36,185.54 L 157.00,184.09"/>
<path d="M 189.54,145.31 L 190.51,142.46 L 191.37,139.57 L 192.10,136.65 L 192.72,133.70 L 193.22,130.72 L 193.59,127.74 L 193.85,124.73 L 193.98,121.72 L 193.99,118.71 L 193.87,115.70 L 193.64,112.69 L 193.28,109.70 L 192.80,106.73 L 192.20,103.77 L 191.48,100.85 L 190.64,97.95 L 189.68,95.10 L 188.61,92.28 L 187.43,89.51 L 186.13,86.79 L 184.72,84.12 L 183.21,81.52 L 181.59,78.98 L 179.87,76.50 L 178.05,74.10 L 176.13,71.78 L 174.12,69.53 L 172.02,67.37 L 169.83,65.30 L 167.57,63.31 L 165.22,61.42 L 162.80,59.63 L 160.30,57.94 L 157.74,56.35 L 155.12,54.87 L 152.44,53.49 L 149.70,52.22 L 146.92,51.07 L 144.09,50.03 L 141.22,49.11 L 138.32,48.30 L 135.39,47.62 L 132.43,47.05 L 129.45,46.61 L 126.45,46.28 L 123.44,46.08 L 120.43,46.00 L 117.42,46.05 L 114.41,46.21 L 111.41,46.50 L 108.42,46.91 L 105.46,47.44 L 102.52,48.10 L 99.60,48.87 L 96.72,49.76 L 93.88,50.76 L 91.09,51.88 L 88.34,53.12 L 85.64,54.46 L 83.00,55.91"/></g>
<path d="M 112.00,116.00 Q 71.89,90.93 48.09,58.45"/>
<path d="M 112.00,116.00 Q 79.06,87.16 62.12,53.96"/>
<path d="M 112.00,116.00 Q 86.29,84.93 75.78,52.24"/>
<path d="M 112.00,116.00 Q 93.31,84.14 88.59,53.05"/>
<path d="M 112.00,116.00 Q 99.84,84.66 100.13,56.04"/>
<path d="M 112.00,116.00 Q 105.68,86.28 110.07,60.80"/>
<path d="M 112.00,116.00 Q 110.67,88.79 118.21,66.87"/>
<path d="M 112.00,116.00 Q 114.70,91.94 124.43,73.77"/>
<path d="M 112.00,116.00 Q 117.74,95.45 128.76,81.01"/>
<path d="M 112.00,116.00 Q 119.84,99.04 131.38,88.11"/>
<path d="M 112.00,116.00 Q 121.23,102.32 132.84,94.42"/>
<path d="M 128.00,124.00 Q 168.11,149.07 191.91,181.55"/>
<path d="M 128.00,124.00 Q 160.94,152.84 177.88,186.04"/>
<path d="M 128.00,124.00 Q 153.71,155.07 164.22,187.76"/>
<path d="M 128.00,124.00 Q 146.69,155.86 151.41,186.95"/>
<path d="M 128.00,124.00 Q 140.16,155.34 139.87,183.96"/>
<path d="M 128.00,124.00 Q 134.32,153.72 129.93,179.20"/>
<path d="M 128.00,124.00 Q 129.33,151.21 121.79,173.13"/>
<path d="M 128.00,124.00 Q 125.30,148.06 115.57,166.23"/>
<path d="M 128.00,124.00 Q 122.26,144.55 111.24,158.99"/>
<path d="M 128.00,124.00 Q 120.16,140.96 108.62,151.89"/>
<path d="M 128.00,124.00 Q 118.77,137.68 107.16,145.58"/>
</svg>