<svg xmlns="http://www.w3.org/2000/svg" viewBox="0 0 240 240" fill="none" stroke="currentColor" stroke-linecap="round">
<g stroke-width="0.8" opacity="0.55"><path d="M 45.83,90.03 L 44.93,92.34 L 44.11,94.68 L 43.36,97.04 L 42.69,99.43 L 42.09,101.83 L 41.56,104.26 L 41.11,106.69 L 40.74,109.14 L 40.44,111.60 L 40.22,114.07 L 40.07,116.55 L 40.01,119.02 L 40.01,121.50 L 40.10,123.98 L 40.26,126.45 L 40.50,128.92 L 40.81,131.38 L 41.20,133.82 L 41.67,136.26 L 42.21,138.68 L 42.83,141.08 L 43.52,143.46 L 44.28,145.81 L 45.12,148.15 L 46.02,150.45 L 47.00,152.73 L 48.05,154.98 L 49.17,157.19 L 50.35,159.36 L 51.61,161.50 L 52.93,163.60 L 54.31,165.66 L 55.75,167.67 L 57.26,169.64 L 58.83,171.56 L 60.46,173.43 L 62.14,175.25 L 63.88,177.01 L 65.67,178.72 L 67.52,180.38 L 69.41,181.97 L 71.35,183.51 L 73.35,184.99 L 75.38,186.40 L 77.46,187.75 L 79.58,189.04 L 81.74,190.26 L 83.93,191.41 L 86.16,192.49 L 88.42,193.50 L 90.71,194.45 L 93.03,195.32 L 95.38,196.12 L 97.75,196.84 L 100.14,197.50 L 102.55,198.07 L 104.98,198.58 L 107.42,199.00 L 109.87,199.36 L 112.33,199.63 L 114.80,199.83 L 117.28,199.95 L 119.76,200.00 L 122.23,199.97 L 124.71,199.86 L 127.18,199.68 L 129.65,199.42 L 132.10,199.08 L 134.54,198.67 L 136.97,198.18 L 139.39,197.62 L 141.78,196.98 L 144.16,196.27 L 146.51,195.48 L 148.83,194.62 L 151.13,193.69 L 153.40,192.70 L 155.63,191.63 L 157.83,190.49 L 160.00,189.28"/><path d="M 194.17,149.97 L 195.07,147.66 L 195.89,145.32 L 196.64,142.96 L 197.31,140.57 L 197.91,138.17 L 198.44,135.74 L 198.89,133.31 L 199.26,130.86 L 199.56,128.40 L 199.78,125.93 L 199.93,123.45 L 199.99,120.98 L 199.99,118.50 L 199.90,116.02 L 199.74,113.55 L 199.50,111.08 L 199.19,108.62 L 198.80,106.18 L 198.33,103.74 L 197.79,101.32 L 197.17,98.92 L 196.48,96.54 L 195.72,94.19 L 194.88,91.85 L 193.98,89.55 L 193.00,87.27 L 191.95,85.02 L 190.83,82.81 L 189.65,80.64 L 188.39,78.50 L 187.07,76.40 L 185.69,74.34 L 184.25,72.33 L 182.74,70.36 L 181.17,68.44 L 179.54,66.57 L 177.86,64.75 L 176.12,62.99 L 174.33,61.28 L 172.48,59.62 L 170.59,58.03 L 168.65,56.49 L 166.65,55.01 L 164.62,53.60 L 162.54,52.25 L 160.42,50.96 L 158.26,49.74 L 156.07,48.59 L 153.84,47.51 L 151.58,46.50 L 149.29,45.55 L 146.97,44.68 L 144.62,43.88 L 142.25,43.16 L 139.86,42.50 L 137.45,41.93 L 135.02,41.42 L 132.58,41.00 L 130.13,40.64 L 127.67,40.37 L 125.20,40.17 L 122.72,40.05 L 120.24,40.00 L 117.77,40.03 L 115.29,40.14 L 112.82,40.32 L 110.35,40.58 L 107.90,40.92 L 105.46,41.33 L 103.03,41.82 L 100.61,42.38 L 98.22,43.02 L 95.84,43.73 L 93.49,44.52 L 91.17,45.38 L 88.87,46.31 L 86.60,47.30 L 84.37,48.37 L 82.17,49.51 L 80.00,50.72"/></g>
<g stroke-width="1.15">
<path d="M 112.00,116.00 Q 67.72,87.24 38.46,54.29"/>
<path d="M 112.00,116.00 Q 74.19,84.19 50.81,50.21"/>
<path d="M 112.00,116.00 Q 80.67,82.22 62.95,48.10"/>
<path d="M 112.00,116.00 Q 87.00,81.30 74.57,47.83"/>
<path d="M 112.00,116.00 Q 93.02,81.33 85.44,49.23"/>
<path d="M 112.00,116.00 Q 98.62,82.23 95.33,52.09"/>
<path d="M 112.00,116.00 Q 103.67,83.87 104.08,56.17"/>
<path d="M 112.00,116.00 Q 108.09,86.13 111.56,61.23"/>
<path d="M 112.00,116.00 Q 111.82,88.87 117.68,67.00"/>
<path d="M 112.00,116.00 Q 114.82,91.94 122.43,73.20"/>
<path d="M 112.00,116.00 Q 117.10,95.19 125.82,79.57"/>
<path d="M 112.00,116.00 Q 118.68,98.46 127.94,85.82"/>
<path d="M 112.00,116.00 Q 119.64,101.58 128.98,91.68"/>
<path d="M 112.00,116.00 Q 120.20,104.29 129.40,96.68"/>
<path d="M 128.00,124.00 Q 172.28,152.76 201.54,185.71"/>
<path d="M 128.00,124.00 Q 165.81,155.81 189.19,189.79"/>
<path d="M 128.00,124.00 Q 159.33,157.78 177.05,191.90"/>
<path d="M 128.00,124.00 Q 153.00,158.70 165.43,192.17"/>
<path d="M 128.00,124.00 Q 146.98,158.67 154.56,190.77"/>
<path d="M 128.00,124.00 Q 141.38,157.77 144.67,187.91"/>
<path d="M 128.00,124.00 Q 136.33,156.13 135.92,183.83"/>
<path d="M 128.00,124.00 Q 131.91,153.87 128.44,178.77"/>
<path d="M 128.00,124.00 Q 128.18,151.13 122.32,173.00"/>
<path d="M 128.00,124.00 Q 125.18,148.06 117.57,166.80"/>
<path d="M 128.00,124.00 Q 122.90,144.81 114.18,160.43"/>
<path d="M 128.00,124.00 Q 121.32,141.54 112.06,154.18"/>
<path d="M 128.00,124.00 Q 120.36,138.42 111.02,148.32"/>
<path d="M 128.00,124.00 Q 119.80,135.71 110.60,143.32"/>
</g>
</svg>